<svg version="1.1" id="Layer_1" xmlns="http://www.w3.org/2000/svg" x="0" y="0" width="17" height="17" xml:space="preserve"><style>.st0{fill:#fff}</style><path class="st0" d="M17 3.7c0 .9-.3 1.7-.9 2.3-.1.1-.1.2-.2.3l-3.1 3.1c.2-.9 0-1.8-.4-2.7l2-2c.1-.1.1-.2.2-.3.1-.2.2-.5.2-.7 0-.4-.1-.8-.4-1-.3-.3-.7-.4-1-.4-.4 0-.7.1-1 .4l-5 4.9c-.6.6-.6 1.5 0 2.1.1.1.2.1.2.2.1 0 .1.1.2.1l-.6.6-1 1c-.1-.1-.3-.2-.4-.3-1.4-1.6-1.4-3.9.1-5.3l4.9-4.9c1.4-1.4 3.8-1.4 5.2 0 .6.7 1 1.6 1 2.6z"/><path class="st0" d="M11.1 11l-4.9 4.9c-.7.7-1.6 1.1-2.6 1.1s-1.9-.4-2.6-1.1c-.6-.7-1-1.7-1-2.6 0-.9.3-1.7.9-2.3.1-.1.1-.2.2-.3l3.1-3.1c-.2.9 0 1.9.4 2.7l-2 2c-.1.1-.1.2-.2.3-.3.6-.3 1.3.2 1.8.6.6 1.5.6 2.1 0l4.9-4.9c.6-.6.6-1.5 0-2.1-.1-.1-.2-.2-.3-.2-.1 0-.1-.1-.2-.1l1.6-1.6c.1.1.3.2.4.3 1.5 1.4 1.5 3.7 0 5.2z"/></svg>