<svg xmlns="http://www.w3.org/2000/svg" xmlns:xlink="http://www.w3.org/1999/xlink" width="17" height="17"><image overflow="visible" width="417" height="400" xlink:href="E1808982.jpg" transform="translate(-721.441 -105.974)"/><g fill="none" stroke="#000" stroke-miterlimit="10"><circle stroke-width="2.1031" cx="32.5" cy="13.8" r="6"/><path stroke-width="2.1031" d="M42.4 23.7l-6.1-6.1"/><g stroke-width=".9201"><path d="M32.5 10.1v7.3M36.1 13.8h-7.3"/></g></g><path fill="#FFF" d="M17 15.6l-4.8-4.8c.8-1.1 1.3-2.5 1.3-4 0-3.7-3-6.7-6.7-6.7S0 3.1 0 6.8s3 6.7 6.7 6.7c1.5 0 2.9-.5 4-1.3l4.8 4.8 1.5-1.4zM2 6.8c0-2.6 2.1-4.7 4.7-4.7s4.7 2.1 4.7 4.7-2.1 4.7-4.7 4.7S2 9.4 2 6.8z"/><path fill="#FFF" d="M10.2 6.4h-3V3.3h-.9v3.1h-3v.8h3v3.1h.9V7.2h3z"/></svg>